<?xml version="1.0" encoding="UTF-8"?>
<svg xmlns="http://www.w3.org/2000/svg" viewBox="220 320 320 350">

<g transform="translate(0.000000,1024.000000) scale(0.100000,-0.100000)" fill="#1E3227" stroke="none">
<path d="M3100 6815 c-158 -34 -275 -100 -386 -217 -83 -88 -116 -140 -152
-241 -22 -62 -26 -89 -26 -197 -1 -105 3 -137 22 -200 63 -198 214 -410 507
-707 112 -114 146 -143 167 -143 61 0 376 240 494 376 219 253 316 480 301
704 -11 165 -73 295 -203 427 -67 67 -98 89 -177 128 -162 78 -377 106 -547
70z m335 -313 c76 -36 145 -104 183 -182 24 -49 27 -66 27 -160 0 -91 -3 -112
-25 -155 -33 -68 -108 -141 -178 -173 -50 -23 -70 -26 -162 -27 -93 0 -111 3
-160 26 -82 39 -135 90 -172 167 -31 63 -33 73 -33 172 1 86 5 113 22 152 26
56 92 131 146 165 97 61 240 67 352 15z"/>
<path d="M4170 6171 c0 -169 -105 -436 -247 -626 -78 -105 -312 -342 -395
-400 -32 -22 -58 -42 -58 -45 0 -3 42 -11 93 -18 143 -19 472 -87 591 -121
168 -49 231 -87 242 -147 18 -98 -63 -155 -315 -218 -155 -39 -211 -79 -211
-148 0 -38 44 -119 100 -188 85 -103 279 -299 344 -346 l58 -44 324 0 c178 0
324 3 324 6 0 8 -28 43 -244 304 -94 113 -201 242 -238 287 -37 45 -68 86 -68
90 0 5 37 33 83 62 109 72 262 226 317 319 113 192 147 443 90 666 -75 295
-333 514 -695 591 -97 20 -95 21 -95 -24z"/>
<path d="M3236 4990 c-54 -10 -88 -31 -120 -74 -20 -27 -21 -40 -24 -537 l-3
-509 295 0 295 0 -34 58 c-67 112 -125 338 -125 481 1 169 71 229 338 285 142
30 178 46 184 80 7 36 -16 81 -48 94 -49 20 -173 51 -304 76 -232 45 -375 59
-454 46z"/>
</g>
</svg>
